# xmcd CD database file
#
# Track frame offsets:
#	182
#	14632
#	30357
#	45460
#	60757
#	74087
#	88717
#	105832
#	122232
#	138415
#	154840
#	173220
#	192515
#	207032
#
# Disc length: 2941 seconds
#
# Revision: 0
# Processed by: cddbd v1.4PL0 Copyright (c) Steve Scherf et al.
# Submitted via: CDex 1.40Beta9
#
DISCID=b90b7b0e
DTITLE=The Bellamy Brothers - Life Goes By
DYEAR=2000
DGENRE=Country
TTITLE0=Life Goes By
TTITLE1=Do You Wanna Dance With Me?
TTITLE2=You Drive Me Crazy
TTITLE3=Put Your Arms Around Me
TTITLE4=Blue California
TTITLE5=Who's Gonna Take You Home
TTITLE6=Life Is Like A Rodeo
TTITLE7=Tough Love
TTITLE8=Catahoula
TTITLE9=The Vertical Expression Of Horizontal Desire
TTITLE10=Afterglow
TTITLE11=Almost Jamaica
TTITLE12=Passion's Thunder
TTITLE13=I Would Always Love You
EXTD=YEAR: 2000 ID3G: 2
EXTT0=
EXTT1=
EXTT2=
EXTT3=
EXTT4=
EXTT5=
EXTT6=
EXTT7=
EXTT8=
EXTT9=
EXTT10=
EXTT11=
EXTT12=
EXTT13=
PLAYORDER=
